<svg width="292" height="64" viewBox="0 0 292 64" fill="none" xmlns="http://www.w3.org/2000/svg">
<rect width="291.226" height="63.3101" rx="31.655" fill="#FFFDE9"/>
<path d="M60.1912 22.6638V38.0178C60.1912 43.0246 57.5209 46.5293 51.5128 46.5293C43.502 46.5293 43.3351 40.5212 43.3351 40.5212H48.0081C48.0081 40.5212 48.175 43.0246 51.5128 43.0246C54.4835 43.0246 55.5182 41.3556 55.5182 38.3516V37.5171H55.3514C55.3514 37.5171 53.8493 39.8536 50.1777 39.8536C45.1709 39.8536 42.6676 35.5144 42.6676 31.0083C42.6676 26.5023 45.1709 22.1631 50.1777 22.1631C54.0162 22.1631 55.5182 25.0002 55.5182 25.0002H55.6851V22.6638H60.1912ZM55.6851 31.0083C55.6851 28.2046 54.35 25.6678 51.5128 25.6678C48.6757 25.6678 47.3405 28.2046 47.3405 31.0083C47.3405 33.8121 48.6757 36.3489 51.5128 36.3489C54.35 36.3489 55.6851 33.8121 55.6851 31.0083ZM66.7104 28.0043H62.0375C62.3045 23.565 65.876 22.1631 69.8814 22.1631C74.0537 22.1631 77.3915 23.6651 77.3915 28.1712V40.0205H72.7185V36.6827H72.5516C72.5516 36.6827 71.4835 40.5212 67.0442 40.5212C63.8733 40.5212 61.5368 39.0525 61.5368 35.8482C61.5368 32.6105 64.2071 31.1419 67.0776 30.4075C69.9815 29.6732 72.7185 29.4396 72.7185 27.5036C72.7185 26.1351 71.7172 25.334 69.8814 25.334C67.8787 25.334 66.7772 26.1351 66.7104 28.0043ZM72.7185 31.2754C71.9508 31.9763 70.382 32.3435 69.0469 32.6773C67.5449 33.0444 66.2765 33.8121 66.2765 35.3475C66.2765 36.6827 67.2111 37.5171 68.7131 37.5171C71.8841 37.5171 72.7185 33.8455 72.7185 31.2754ZM89.2291 40.0205V30.3408C89.2291 27.3367 88.6283 26.0016 86.7925 26.0016C84.7898 26.0016 83.7217 27.5036 83.7217 31.0083V40.0205H79.0487V22.6638H83.5548V25.5009H83.7217C83.7217 25.5009 84.8899 22.1631 88.3946 22.1631C91.1984 22.1631 92.7004 23.4982 93.368 25.5343L93.4014 25.5009H93.5683C93.5683 25.5009 95.0703 22.1631 98.575 22.1631C102.914 22.1631 104.082 25.334 104.082 29.3394V40.0205H99.4095V30.3408C99.4095 27.3367 98.8087 26.0016 96.9729 26.0016C94.9702 26.0016 93.9021 27.5036 93.9021 31.0083V40.0205H89.2291ZM105.745 40.0205V22.6638H110.418V29.0056H113.255C118.095 29.0056 120.765 31.1752 120.765 34.5131C120.765 37.8509 118.095 40.0205 113.255 40.0205H105.745ZM112.587 32.3435H110.418V36.6827H112.587C115.091 36.6827 116.092 36.0151 116.092 34.5131C116.092 33.011 115.091 32.3435 112.587 32.3435ZM129.626 40.0205L135.868 22.6638H141.142L147.383 40.0205H142.377L138.371 27.7039L134.366 40.0205H129.626ZM153.057 28.0043H148.384C148.651 23.565 152.223 22.1631 156.228 22.1631C160.401 22.1631 163.738 23.6651 163.738 28.1712V40.0205H159.066V36.6827H158.899C158.899 36.6827 157.831 40.5212 153.391 40.5212C150.22 40.5212 147.884 39.0525 147.884 35.8482C147.884 32.6105 150.554 31.1419 153.425 30.4075C156.328 29.6732 159.066 29.4396 159.066 27.5036C159.066 26.1351 158.064 25.334 156.228 25.334C154.226 25.334 153.124 26.1351 153.057 28.0043ZM159.066 31.2754C158.298 31.9763 156.729 32.3435 155.394 32.6773C153.892 33.0444 152.623 33.8121 152.623 35.3475C152.623 36.6827 153.558 37.5171 155.06 37.5171C158.231 37.5171 159.066 33.8455 159.066 31.2754ZM165.396 40.0205V22.6638H169.902V25.5009H170.069C170.069 25.5009 171.571 22.1631 175.409 22.1631C180.249 22.1631 181.584 25.334 181.584 29.3394V40.0205H176.911V30.3408C176.911 27.3367 176.077 26.0016 173.907 26.0016C171.404 26.0016 170.069 27.5036 170.069 31.0083V40.0205H165.396ZM183.258 40.0205V22.6638H187.931V29.6732L194.106 22.6638H199.614L193.072 29.4396L199.948 40.0205H194.24L189.834 32.7774L187.931 34.7467V40.0205H183.258ZM217.463 22.6638L211.288 40.5212C209.92 44.4932 208.117 46.5293 204.613 46.5293C202.944 46.5293 201.609 46.0286 201.609 46.0286V42.1901C201.609 42.1901 202.61 42.5239 203.778 42.5239C205.447 42.5239 206.115 41.6227 206.782 40.0205L199.773 22.6638H204.78L209.019 34.1125L212.457 22.6638H217.463Z" fill="black"/>
<path fill-rule="evenodd" clip-rule="evenodd" d="M252.692 39.8016C253.388 41.7019 253.36 43.9373 252.338 45.9489C250.01 50.5308 245.029 50.2495 241.801 47.0628C239.941 45.2738 237.74 44.1553 235.198 43.7072C230.722 42.9791 227.558 39.1217 229.886 34.5399C230.908 32.5283 232.697 31.1878 234.643 30.6297C236.087 30.239 237.259 29.5687 238.491 28.5074C240.954 26.3847 244.561 25.827 247.643 27.393C250.724 28.959 252.4 32.201 252.138 35.4423C252.007 37.0631 252.156 38.4042 252.692 39.8016L252.692 39.8016Z" fill="black"/>
<path fill-rule="evenodd" clip-rule="evenodd" d="M247.672 14.0537C249.606 15.0365 250.211 17.7889 248.992 20.1892C247.83 22.4752 245.25 23.6089 243.316 22.6261C241.382 21.6433 240.891 18.9486 242.052 16.6628C243.272 14.2626 245.738 13.0709 247.672 14.0537Z" fill="black"/>
<path fill-rule="evenodd" clip-rule="evenodd" d="M258.343 19.4761C260.246 20.4431 260.825 23.1825 259.606 25.5828C258.444 27.8688 255.89 29.0155 253.987 28.0485C252.084 27.0816 251.504 24.3422 252.666 22.0563C253.886 19.6561 256.44 18.5091 258.343 19.4761Z" fill="black"/>
<path fill-rule="evenodd" clip-rule="evenodd" d="M261.801 32.1353C263.204 33.556 263.076 36.0382 261.315 37.8318C259.723 39.5702 257.123 39.9472 255.72 38.5266C254.26 37.2184 254.445 34.6238 256.206 32.8302C257.798 31.0918 260.341 30.8273 261.801 32.1353Z" fill="black"/>
<path fill-rule="evenodd" clip-rule="evenodd" d="M235.447 18.7428C233.486 18.454 231.564 20.0245 231.148 22.5018C230.678 24.8101 231.89 27.1243 233.851 27.4132C235.755 27.8144 237.734 26.1314 238.261 23.7108C238.62 21.3459 237.351 19.1441 235.447 18.7427L235.447 18.7428Z" fill="black"/>
</svg>
