<svg width="184" height="40" viewBox="0 0 184 40" fill="none" xmlns="http://www.w3.org/2000/svg">
<rect width="184" height="40" rx="20" fill="#CAFF59"/>
<path d="M41.2 25V20.9H37.3V25H34.5V14.6H37.3V18.7H41.2V14.6H44V25H41.2ZM47.9078 17.8H45.1078C45.2678 15.14 47.4078 14.3 49.8078 14.3C52.3078 14.3 54.3078 15.2 54.3078 17.9V25H51.5078V23H51.4078C51.4078 23 50.7678 25.3 48.1078 25.3C46.2078 25.3 44.8078 24.42 44.8078 22.5C44.8078 20.56 46.4078 19.68 48.1278 19.24C49.8678 18.8 51.5078 18.66 51.5078 17.5C51.5078 16.68 50.9078 16.2 49.8078 16.2C48.6078 16.2 47.9478 16.68 47.9078 17.8ZM51.5078 19.76C51.0478 20.18 50.1078 20.4 49.3078 20.6C48.4078 20.82 47.6478 21.28 47.6478 22.2C47.6478 23 48.2078 23.5 49.1078 23.5C51.0078 23.5 51.5078 21.3 51.5078 19.76ZM56.3008 13.6V12.8H64.0008V13.6H56.3008ZM65.0008 14.6V25H62.3008V23.3H62.2008C62.2008 23.3 61.3008 25.3 59.0008 25.3C56.1008 25.3 55.3008 23.4 55.3008 21V14.6H58.1008V20.4C58.1008 22.2 58.6008 23 59.9008 23C61.4008 23 62.2008 22.1 62.2008 20V14.6H65.0008ZM72.1039 25V19.2C72.1039 17.4 71.7439 16.6 70.6439 16.6C69.4439 16.6 68.8039 17.5 68.8039 19.6V25H66.0039V14.6H68.7039V16.3H68.8039C68.8039 16.3 69.5039 14.3 71.6039 14.3C73.2839 14.3 74.1839 15.1 74.5839 16.32L74.6039 16.3H74.7039C74.7039 16.3 75.6039 14.3 77.7039 14.3C80.3039 14.3 81.0039 16.2 81.0039 18.6V25H78.2039V19.2C78.2039 17.4 77.8439 16.6 76.7439 16.6C75.5439 16.6 74.9039 17.5 74.9039 19.6V25H72.1039ZM91.7 14.6V25H89V23.3H88.9C88.9 23.3 88 25.3 85.7 25.3C82.8 25.3 82 23.4 82 21V14.6H84.8V20.4C84.8 22.2 85.3 23 86.6 23C88.1 23 88.9 22.1 88.9 20V14.6H91.7ZM107.908 14.6V23.8C107.908 26.8 106.308 28.9 102.708 28.9C97.9078 28.9 97.8078 25.3 97.8078 25.3H100.608C100.608 25.3 100.708 26.8 102.708 26.8C104.488 26.8 105.108 25.8 105.108 24V23.5H105.008C105.008 23.5 104.108 24.9 101.908 24.9C98.9078 24.9 97.4078 22.3 97.4078 19.6C97.4078 16.9 98.9078 14.3 101.908 14.3C104.208 14.3 105.108 16 105.108 16H105.208V14.6H107.908ZM105.208 19.6C105.208 17.92 104.408 16.4 102.708 16.4C101.008 16.4 100.208 17.92 100.208 19.6C100.208 21.28 101.008 22.8 102.708 22.8C104.408 22.8 105.208 21.28 105.208 19.6ZM108.914 28.6V14.6H111.614V16H111.714C111.714 16 112.614 14.3 114.914 14.3C117.914 14.3 119.414 16.9 119.414 19.8C119.414 22.7 117.914 25.3 114.914 25.3C112.714 25.3 111.814 23.9 111.814 23.9H111.714V28.6H108.914ZM111.614 19.8C111.614 21.68 112.414 23.2 114.114 23.2C115.814 23.2 116.614 21.68 116.614 19.8C116.614 17.92 115.814 16.4 114.114 16.4C112.414 16.4 111.614 17.92 111.614 19.8ZM129.917 14.6L126.217 25.3C125.397 27.68 124.317 28.9 122.217 28.9C121.217 28.9 120.417 28.6 120.417 28.6V26.3C120.417 26.3 121.017 26.5 121.717 26.5C122.717 26.5 123.117 25.96 123.517 25L119.317 14.6H122.317L124.857 21.46L126.917 14.6H129.917ZM136.808 21.6H139.508C139.508 22.8 138.708 25.3 134.608 25.3C131.608 25.3 129.908 24 129.908 22C129.908 18.1 136.508 19.1 136.508 17.4C136.508 16.76 135.908 16.2 134.808 16.2C132.908 16.2 132.908 17.6 132.908 17.6H130.208C130.208 16.6 130.908 14.3 134.808 14.3C137.608 14.3 139.308 15.6 139.308 17.4C139.308 21.3 132.708 19.88 132.708 22.1C132.708 22.7 133.108 23.4 134.608 23.4C136.808 23.4 136.808 21.6 136.808 21.6ZM143.298 17.8H140.498C140.658 15.14 142.798 14.3 145.198 14.3C147.698 14.3 149.698 15.2 149.698 17.9V25H146.898V23H146.798C146.798 23 146.158 25.3 143.498 25.3C141.598 25.3 140.198 24.42 140.198 22.5C140.198 20.56 141.798 19.68 143.518 19.24C145.258 18.8 146.898 18.66 146.898 17.5C146.898 16.68 146.298 16.2 145.198 16.2C143.998 16.2 143.338 16.68 143.298 17.8ZM146.898 19.76C146.438 20.18 145.498 20.4 144.698 20.6C143.798 20.82 143.038 21.28 143.038 22.2C143.038 23 143.598 23.5 144.498 23.5C146.398 23.5 146.898 21.3 146.898 19.76Z" fill="black"/>
</svg>
