<svg width="184" height="40" viewBox="0 0 184 40" fill="none" xmlns="http://www.w3.org/2000/svg">
<rect width="184" height="40" rx="20" fill="#CAFF59"/>
<path d="M19.5 25V14.6H22.2V16.3H22.3C22.3 16.3 23.2 14.3 25.5 14.3C28.4 14.3 29.2 16.2 29.2 18.6V25H26.4V19.2C26.4 17.4 25.9 16.6 24.6 16.6C23.1 16.6 22.3 17.5 22.3 19.6V25H19.5ZM32.9031 19.8C32.9031 21.68 33.6231 23.2 35.4031 23.2C37.1831 23.2 37.9031 21.68 37.9031 19.8C37.9031 17.92 37.1831 16.4 35.4031 16.4C33.6231 16.4 32.9031 17.92 32.9031 19.8ZM30.1031 19.8C30.1031 16.76 31.9831 14.3 35.4031 14.3C38.8231 14.3 40.7031 16.76 40.7031 19.8C40.7031 22.84 38.8231 25.3 35.4031 25.3C31.9831 25.3 30.1031 22.84 30.1031 19.8ZM54.2094 14.6V25H51.6094V17.7H51.5094L49.2094 25H46.6094L44.3094 17.7H44.2094V25H41.6094V14.6H45.8094L47.9094 21.8L50.0094 14.6H54.2094ZM57.9031 19.8C57.9031 21.68 58.6231 23.2 60.4031 23.2C62.1831 23.2 62.9031 21.68 62.9031 19.8C62.9031 17.92 62.1831 16.4 60.4031 16.4C58.6231 16.4 57.9031 17.92 57.9031 19.8ZM55.1031 19.8C55.1031 16.76 56.9831 14.3 60.4031 14.3C63.8231 14.3 65.7031 16.76 65.7031 19.8C65.7031 22.84 63.8231 25.3 60.4031 25.3C56.9831 25.3 55.1031 22.84 55.1031 19.8ZM75.7094 14.6V25H72.9094V21H70.2094C67.3094 21 66.5094 20.3 66.5094 18V14.6H69.3094V17.7C69.3094 19 69.7094 19 70.9094 19H72.9094V14.6H75.7094ZM76.707 25V14.6H79.507V18.4H81.207C84.107 18.4 85.707 19.7 85.707 21.7C85.707 23.7 84.107 25 81.207 25H76.707ZM80.807 20.4H79.507V23H80.807C82.307 23 82.907 22.6 82.907 21.7C82.907 20.8 82.307 20.4 80.807 20.4ZM91.3164 25V14.6H94.0164V16.3H94.1164C94.1164 16.3 95.0164 14.3 97.3164 14.3C100.216 14.3 101.016 16.2 101.016 18.6V25H98.2164V19.2C98.2164 17.4 97.7164 16.6 96.4164 16.6C94.9164 16.6 94.1164 17.5 94.1164 19.6V25H91.3164ZM102.02 28.6V14.6H104.72V16H104.82C104.82 16 105.72 14.3 108.02 14.3C111.02 14.3 112.52 16.9 112.52 19.8C112.52 22.7 111.02 25.3 108.02 25.3C105.82 25.3 104.92 23.9 104.92 23.9H104.82V28.6H102.02ZM104.72 19.8C104.72 21.68 105.52 23.2 107.22 23.2C108.92 23.2 109.72 21.68 109.72 19.8C109.72 17.92 108.92 16.4 107.22 16.4C105.52 16.4 104.72 17.92 104.72 19.8ZM123.126 14.6V25H120.426V23.3H120.326C120.326 23.3 119.426 25.3 117.126 25.3C114.226 25.3 113.426 23.4 113.426 21V14.6H116.226V20.4C116.226 22.2 116.726 23 118.026 23C119.526 23 120.326 22.1 120.326 20V14.6H123.126ZM126.929 14.6V18.7H128.309C128.669 16.2 130.329 14.3 133.329 14.3C136.749 14.3 138.429 16.76 138.429 19.8C138.429 22.84 136.749 25.3 133.329 25.3C130.329 25.3 128.669 23.42 128.309 20.9H126.929V25H124.129V14.6H126.929ZM131.029 19.8C131.029 21.68 131.549 23.2 133.329 23.2C135.109 23.2 135.629 21.68 135.629 19.8C135.629 17.92 135.109 16.4 133.329 16.4C131.549 16.4 131.029 17.92 131.029 19.8ZM145.424 25V19.2C145.424 17.4 145.064 16.6 143.964 16.6C142.764 16.6 142.124 17.5 142.124 19.6V25H139.324V14.6H142.024V16.3H142.124C142.124 16.3 142.824 14.3 144.924 14.3C146.604 14.3 147.504 15.1 147.904 16.32L147.924 16.3H148.024C148.024 16.3 148.924 14.3 151.024 14.3C153.624 14.3 154.324 16.2 154.324 18.6V25H151.524V19.2C151.524 17.4 151.164 16.6 150.064 16.6C148.864 16.6 148.224 17.5 148.224 19.6V25H145.424ZM165.327 14.6L161.627 25.3C160.807 27.68 159.727 28.9 157.627 28.9C156.627 28.9 155.827 28.6 155.827 28.6V26.3C155.827 26.3 156.427 26.5 157.127 26.5C158.127 26.5 158.527 25.96 158.927 25L154.727 14.6H157.727L160.267 21.46L162.327 14.6H165.327Z" fill="black"/>
</svg>
