<svg width="170" height="36" viewBox="0 0 170 36" fill="none" xmlns="http://www.w3.org/2000/svg">
<path d="M20.6802 26.5405C20.6802 32.0832 17.6662 36.0001 10.8777 36.0001C1.82627 36.0278 1.63848 29.3211 1.63848 29.3211H6.92472C6.92472 29.3211 7.11251 32.0925 10.8777 32.0925C14.2391 32.0925 15.4034 30.2449 15.4034 26.9008V25.977H15.2156C14.5243 26.8479 13.6279 27.5402 12.6039 27.9941C11.5798 28.448 10.4589 28.6498 9.3378 28.5821C3.70415 28.5821 0.887329 23.7599 0.887329 18.7437C0.887329 13.7276 3.70415 8.91465 9.3378 8.91465C10.535 8.87399 11.7221 9.1436 12.78 9.69647C13.838 10.2493 14.7297 11.066 15.3658 12.0648H15.5536V9.46892H20.6427L20.6802 26.5405ZM10.8777 12.813C7.67587 12.813 6.18296 15.6306 6.18296 18.7437C6.18296 21.8569 7.69465 24.6837 10.8777 24.6837C14.0607 24.6837 15.5724 21.9123 15.5724 18.7437C15.5724 15.5752 14.0888 12.813 10.8777 12.813Z" fill="black"/>
<path d="M22.7553 15.4084C23.0557 10.4754 27.0932 8.94189 31.6189 8.94189C36.3136 8.94189 40.0693 10.6139 40.0693 15.6209V28.7664H34.8207V25.0712H34.6329C34.2079 26.3499 33.3716 27.4578 32.2503 28.2277C31.129 28.9976 29.7835 29.3877 28.4171 29.3391C24.8303 29.3391 22.1919 27.704 22.1919 24.1474C22.1919 20.5909 25.2059 18.9096 28.4546 18.0966C31.7034 17.2837 34.8207 17.025 34.8207 14.8726C34.8207 13.3484 33.6939 12.4615 31.6189 12.4615C29.356 12.4615 28.1072 13.3853 28.0321 15.4269L22.7553 15.4084ZM30.6799 20.6001C28.9804 21.0066 27.5439 21.8657 27.5439 23.5655C27.5439 25.0527 28.6049 25.9765 30.295 25.9765C33.8817 25.9765 34.8207 21.9026 34.8207 19.0389C33.9568 19.8241 32.1822 20.2306 30.6799 20.6001Z" fill="black"/>
<path d="M60.2754 28.7667H55.1863V25.6073H54.9985C54.4352 26.7102 53.5735 27.6387 52.5083 28.2907C51.4431 28.9427 50.2156 29.2928 48.9611 29.3025C43.4965 29.3025 41.9848 25.7736 41.9848 21.3209V9.46875H47.2617V20.2309C47.2617 23.5657 48.2006 25.053 50.6606 25.053C53.4774 25.053 54.9985 23.381 54.9985 19.5103V9.46875H60.2754V28.7667Z" fill="black"/>
<path d="M77.6927 9.46875H83.655L90.7064 28.7667H85.0728L80.5189 15.0761L76.0026 28.7667H70.6506L77.6927 9.46875Z" fill="black"/>
<path d="M91.8332 15.4084C92.1336 10.4754 96.1711 8.94189 100.697 8.94189C105.391 8.94189 109.147 10.6139 109.147 15.6209V28.7664H103.87V25.0712H103.683C103.254 26.3498 102.416 27.4571 101.294 28.2267C100.171 28.9964 98.8248 29.3867 97.4574 29.3391C93.8801 29.3391 91.2416 27.704 91.2416 24.1474C91.2416 20.5909 94.2556 18.9096 97.495 18.0966C100.734 17.2837 103.87 17.025 103.87 14.8726C103.87 13.3484 102.744 12.4615 100.669 12.4615C98.4058 12.4615 97.157 13.3853 97.0818 15.4269L91.8332 15.4084ZM99.7484 20.6001C98.0583 21.0066 96.6218 21.8657 96.6218 23.5654C96.6218 25.0527 97.6734 25.9765 99.3729 25.9765C102.96 25.9765 103.899 21.9026 103.899 19.0389C103.035 19.8241 101.26 20.2306 99.7484 20.6001Z" fill="black"/>
<path d="M111.063 9.4689H116.152V12.6283H116.34C116.903 11.5254 117.765 10.5968 118.83 9.94488C119.895 9.29291 121.122 8.9428 122.377 8.93311C127.842 8.93311 129.353 12.462 129.353 16.9146V28.7668H124.076V18.0047C124.076 14.6698 123.137 13.1825 120.677 13.1825C117.861 13.1825 116.34 14.8546 116.34 18.7253V28.7668H111.063V9.4689Z" fill="black"/>
<path d="M131.231 9.46875H136.517V17.2655L143.494 9.46875H149.709L142.32 17.0069L150.085 28.7667H143.606L138.621 20.7112L136.48 22.9006V28.7667H131.194L131.231 9.46875Z" fill="black"/>
<path d="M162.911 29.3209C161.362 33.7366 159.324 35.9999 155.399 35.9999C154.247 35.9948 153.102 35.8077 152.01 35.4457V31.1778C152.805 31.4158 153.63 31.5403 154.461 31.5473C156.338 31.5473 157.099 30.5403 157.85 28.7759L149.897 9.46875H155.531L160.348 22.1708L164.263 9.46875H169.897L162.911 29.3209Z" fill="black"/>
<path fill-rule="evenodd" clip-rule="evenodd" d="M53.6858 0.267761C55.4134 1.06222 56.0237 3.40864 55.0285 5.50564C54.0332 7.60263 51.8455 8.5449 50.1272 7.75044C48.4089 6.95598 47.7892 4.6188 48.7376 2.60494C49.6859 0.591086 51.9675 -0.526696 53.6858 0.267761Z" fill="black"/>
</svg>
