<svg width="41" height="40" viewBox="0 0 41 40" fill="none" xmlns="http://www.w3.org/2000/svg">
<path d="M16.4 25.8316V14.1691L27.06 20.0004L16.4 25.8316Z" fill="#CBFF5D"/>
<path d="M40.135 10.6469C39.9017 9.82543 39.4448 9.07642 38.8101 8.47486C38.1754 7.8733 37.3852 7.44029 36.5184 7.21917C33.3265 6.40039 20.5 6.40039 20.5 6.40039C20.5 6.40039 7.67355 6.40039 4.48158 7.21917C3.61482 7.44029 2.82455 7.8733 2.18985 8.47486C1.55515 9.07642 1.09829 9.82543 0.864984 10.6469C0.268972 13.7323 -0.0202566 16.8638 0.00110172 20.0004C-0.0202566 23.137 0.268972 26.2685 0.864984 29.3539C1.09829 30.1754 1.55515 30.9244 2.18985 31.5259C2.82455 32.1275 3.61482 32.5605 4.48158 32.7816C7.67355 33.6004 20.5 33.6004 20.5 33.6004C20.5 33.6004 33.3265 33.6004 36.5184 32.7816C37.3852 32.5605 38.1754 32.1275 38.8101 31.5259C39.4448 30.9244 39.9017 30.1754 40.135 29.3539C40.731 26.2685 41.0203 23.137 40.9989 20.0004C41.0203 16.8638 40.731 13.7323 40.135 10.6469ZM16.4002 25.829V14.1718L27.045 20.0004L16.4002 25.829Z" fill="black"/>
</svg>
