<svg width="39" height="38" viewBox="0 0 39 38" fill="none" xmlns="http://www.w3.org/2000/svg">
<path fill-rule="evenodd" clip-rule="evenodd" d="M30.2237 23.7572C31.8642 25.3298 32.9578 27.6174 32.9578 30.1909C32.9578 36.0529 27.8999 38.3405 23.1151 36.7678C20.381 35.91 17.6472 35.91 14.9131 36.7678C10.1287 38.3404 5.07043 36.0529 5.07043 30.1909C5.07043 27.6174 6.16399 25.3299 7.80452 23.7572C9.03473 22.6135 9.85512 21.3266 10.5386 19.611C11.9057 16.1797 15.1864 13.749 19.0142 13.749C22.8419 13.749 26.1226 16.1797 27.4897 19.611C28.1733 21.3268 28.9933 22.6134 30.2238 23.7572H30.2237Z" fill="black"/>
<path fill-rule="evenodd" clip-rule="evenodd" d="M12.3519 0.17041C14.7542 0.17041 16.7324 2.65647 16.7324 5.72737C16.7324 8.6521 14.7542 11.1379 12.3519 11.1379C9.94963 11.1379 8.11267 8.65183 8.11267 5.72737C8.11267 2.65654 9.94963 0.17041 12.3519 0.17041Z" fill="black"/>
<path fill-rule="evenodd" clip-rule="evenodd" d="M25.6056 0.17041C27.9692 0.17041 29.9155 2.65647 29.9155 5.72737C29.9155 8.6521 27.9692 11.1379 25.6056 11.1379C23.2421 11.1379 21.2958 8.65183 21.2958 5.72737C21.2958 2.65654 23.242 0.17041 25.6056 0.17041Z" fill="black"/>
<path fill-rule="evenodd" clip-rule="evenodd" d="M35.3703 11.2556C37.4682 11.9752 38.587 14.5652 37.7479 17.2991C37.0486 19.8892 34.6712 21.616 32.5733 20.8965C30.4754 20.3208 29.3566 17.587 30.1957 14.8531C30.895 12.263 33.2724 10.6802 35.3703 11.2556Z" fill="black"/>
<path fill-rule="evenodd" clip-rule="evenodd" d="M2.63586 11.2556C0.555292 11.9752 -0.55425 14.5652 0.277874 17.2991C0.971418 19.8892 3.32915 21.616 5.40965 20.8965C7.49022 20.3208 8.59976 17.587 7.90628 14.8531C7.07416 12.263 4.71617 10.6802 2.6356 11.2556H2.63586Z" fill="black"/>
</svg>
