<svg width="121" height="187" viewBox="0 0 121 187" fill="none" xmlns="http://www.w3.org/2000/svg">
<path fill-rule="evenodd" clip-rule="evenodd" d="M70.2118 84.1969C78.2148 85.3054 86.1331 89.6131 91.4986 97.0243C103.72 113.905 93.9238 131.038 76.8658 136.484C67.204 139.714 59.3313 145.414 53.2461 153.584C42.7467 168.088 23.4111 172.046 11.1899 155.165C5.82438 147.754 4.20454 138.887 5.65005 130.937C6.80823 125.079 6.48773 119.663 4.87938 113.297C1.66246 100.566 6.04251 86.7262 17.0656 78.7459C28.0886 70.7656 42.6037 70.9256 53.6945 77.9568C59.2401 81.4728 64.2841 83.4681 70.2121 84.1966L70.2118 84.1969Z" fill="#F5F3DB"/>
<path fill-rule="evenodd" clip-rule="evenodd" d="M-30.4292 53.531C-23.5112 48.5226 -12.6314 51.5576 -6.22902 60.4011C-0.131422 68.8236 -0.645492 80.1062 -7.56366 85.1147C-14.4816 90.1231 -24.9547 86.7936 -31.0517 78.3719C-37.4539 69.5286 -37.3472 58.5394 -30.4292 53.531Z" fill="#F5F3DB"/>
<path fill-rule="evenodd" clip-rule="evenodd" d="M7.73838 25.8994C14.5448 20.9717 25.3328 24.0732 31.7351 32.9167C37.8328 41.3392 37.4105 52.5553 30.6039 57.4831C23.7974 62.4107 13.0095 59.3092 6.91244 50.8875C0.510229 42.0442 0.931747 30.8271 7.73838 25.8994Z" fill="#F5F3DB"/>
<path fill-rule="evenodd" clip-rule="evenodd" d="M58.9694 37.4653C66.511 35.1634 75.1328 40.2896 78.4162 49.9119C81.8023 58.8288 78.5559 68.758 71.0146 71.0599C63.7728 73.7759 54.8513 68.2356 51.5678 58.6133C48.1818 49.6964 51.7284 40.182 58.9694 37.4653Z" fill="#F5F3DB"/>
<path fill-rule="evenodd" clip-rule="evenodd" d="M-35.298 105.711C-39.7894 112.121 -37.5848 121.893 -29.4887 128.031C-22.0915 134.044 -11.7018 134.101 -7.21037 127.692C-2.41907 121.696 -4.92356 111.51 -12.6203 105.083C-20.4167 99.3592 -30.5068 99.7173 -35.2987 105.712L-35.298 105.711Z" fill="#F5F3DB"/>
</svg>
