<svg width="158" height="156" viewBox="0 0 158 156" fill="none" xmlns="http://www.w3.org/2000/svg">
<path fill-rule="evenodd" clip-rule="evenodd" d="M114.65 102.883C119.304 109.488 121.562 118.215 119.81 127.195C115.818 147.65 96.6116 152.188 80.9863 143.442C72.03 138.588 62.4906 136.726 52.3662 137.858C34.6006 140.087 18.5079 128.661 22.4993 108.207C24.2517 99.2263 29.6251 91.989 36.4204 87.6183C41.4919 84.465 45.2308 80.533 48.7839 75.0122C55.8904 63.9699 68.9933 57.7219 82.35 60.3283C95.7066 62.9346 105.499 73.65 107.933 86.5542C109.15 93.0068 111.136 98.0546 114.65 102.884L114.65 102.883Z" fill="#F5F3DB"/>
<path fill-rule="evenodd" clip-rule="evenodd" d="M68.3493 8.41091C76.7318 10.0466 81.9418 20.0685 79.8509 30.7841C77.8594 40.9897 69.2643 48.3167 60.8815 46.6809C52.499 45.0452 47.7819 35.1195 49.7731 24.9149C51.8641 14.1995 59.9668 6.7752 68.3493 8.41091Z" fill="#F5F3DB"/>
<path fill-rule="evenodd" clip-rule="evenodd" d="M114.597 17.4346C122.844 19.0439 127.943 29.0441 125.852 39.7597C123.861 49.9652 115.377 57.314 107.129 55.7046C98.8818 54.0953 93.7831 44.0951 95.7744 33.8905C97.8653 23.1751 106.349 15.8252 114.597 17.4346Z" fill="#F5F3DB"/>
<path fill-rule="evenodd" clip-rule="evenodd" d="M141.121 62.7654C147.952 66.7046 150.093 76.5041 145.303 85.4724C141.099 94.0342 131.628 98.4408 124.797 94.5019C117.869 91.0646 115.826 80.7632 120.616 71.7949C124.82 63.2331 134.193 59.3291 141.121 62.7654Z" fill="#F5F3DB"/>
<path fill-rule="evenodd" clip-rule="evenodd" d="M26.8976 40.4759C19.1477 41.5699 13.5125 49.8521 14.5546 59.9584C15.211 69.4686 22.2624 77.0993 30.0119 76.0055C37.6639 75.4133 43.397 66.6292 42.8387 56.6174C41.6987 47.0128 34.5484 39.8845 26.8967 40.4757L26.8976 40.4759Z" fill="#F5F3DB"/>
</svg>
