<svg width="172" height="170" viewBox="0 0 172 170" fill="none" xmlns="http://www.w3.org/2000/svg">
<path fill-rule="evenodd" clip-rule="evenodd" d="M129.156 88.3142C136.511 91.6587 142.872 98.0453 145.902 106.679C152.802 126.344 138.528 139.972 120.625 140.328C110.443 140.669 101.272 143.888 93.1098 149.984C78.9108 160.891 59.2492 159.172 52.3488 139.507C49.3192 130.873 50.295 121.912 53.9472 114.705C56.7277 109.42 57.9649 104.137 58.2384 97.5777C58.7852 84.4577 66.9296 72.4414 79.7705 67.9355C92.6115 63.4295 106.478 67.7217 115.104 77.6234C119.417 82.5747 123.682 85.9254 129.157 88.3141L129.156 88.3142Z" fill="#F5F3DB"/>
<path fill-rule="evenodd" clip-rule="evenodd" d="M41.4371 30.2255C49.496 27.3976 59.0587 33.4089 62.6737 43.7108C66.1166 53.5223 62.4068 64.1899 54.3477 67.0179C46.2888 69.8458 37.1999 63.6682 33.7573 53.8576C30.1424 43.556 33.3782 33.0534 41.4371 30.2255Z" fill="#F5F3DB"/>
<path fill-rule="evenodd" clip-rule="evenodd" d="M85.899 14.6229C93.828 11.8406 103.284 17.8894 106.899 28.1912C110.342 38.0027 106.739 48.6328 98.8096 51.4152C90.8807 54.1975 81.4249 48.1487 77.9823 38.3381C74.3675 28.0365 77.9699 17.4052 85.899 14.6229Z" fill="#F5F3DB"/>
<path fill-rule="evenodd" clip-rule="evenodd" d="M131.705 40.3162C139.59 40.2603 146.393 47.6321 146.796 57.7911C147.499 67.3034 141.556 75.8947 133.672 75.9508C125.956 76.4891 118.985 68.6349 118.581 58.4759C117.878 48.9636 123.99 40.8555 131.705 40.3162Z" fill="#F5F3DB"/>
<path fill-rule="evenodd" clip-rule="evenodd" d="M21.8919 78.8504C15.7592 83.7134 15.086 93.7083 21.0958 101.9C26.4714 109.773 36.4135 112.79 42.546 107.927C48.848 103.547 49.3519 93.0695 43.8072 84.7145C37.9667 77.005 28.1933 74.4712 21.891 78.8507L21.8919 78.8504Z" fill="#F5F3DB"/>
</svg>
